<svg width="20" height="20" viewBox="0 0 20 20" fill="none" xmlns="http://www.w3.org/2000/svg">
<path d="M8.228 14L9.512 7.544H11.372L10.088 14H8.228ZM10.76 6.644C10.432 6.644 10.168 6.552 9.968 6.368C9.768 6.176 9.668 5.944 9.668 5.672C9.668 5.352 9.78 5.088 10.004 4.88C10.236 4.664 10.536 4.556 10.904 4.556C11.232 4.556 11.496 4.648 11.696 4.832C11.904 5.008 12.008 5.228 12.008 5.492C12.008 5.836 11.892 6.116 11.66 6.332C11.436 6.54 11.136 6.644 10.76 6.644Z" fill="#838383"/>
<circle cx="10" cy="10" r="9" stroke="#838383" stroke-width="2"/>
</svg>
